Coordinates
version=1
nRows=12
nColumns=33
inDegrees=yes

Units are S.I. units (second, meters, Newtons, ...)
Angles are in degrees.

endheader
time	ground_thorax_rot_x	ground_thorax_rot_y	ground_thorax_rot_z	ground_thorax_tx	ground_thorax_ty	ground_thorax_tz	clav_prot_r	clav_elev_r	scapula_abduction_r	scapula_elevation_r	scapula_upward_rot_r	scapula_winging_r	shoulder_elv_r	plane_of_elev_r	axial_rot_r	elbow_flexion_r	pro_sup_r	wrist_flex_r	wrist_dev_r	clav_prot_l	clav_elev_l	scapula_abduction_l	scapula_elevation_l	scapula_upward_rot_l	scapula_winging_l	shoulder_elv_l	plane_of_elev_l	axial_rot_l	elbow_flexion_l	pro_sup_l	wrist_flex_l	wrist_dev_l
      5.26000000	    -31.84174271	    -26.35254158	     31.79044516	    -76.70527925	    849.49637242	    -53.20661510	     26.14981946	    -45.00000000	     39.55262798	    -45.00000000	    -45.00000000	   1693.67504632	   1156.00487147	     21.76234000	   -151.50713678	   2518.04117688	    155.58350693	     15.66498881	     14.62212994	     -0.80643381	     32.77929490	    -31.76864432	    -45.00000000	    -45.00000000	   3687.27094442	  -2607.44841668	    132.17087310	   -100.74822882	   1790.18719709	     43.05126019	     13.01550285	    -22.92691781
      5.27000000	    -31.70872046	    -26.66863636	     32.09270211	    -74.43232833	    849.00323300	    -53.39026895	     26.12225329	    -45.00000000	     39.58349257	    -45.00000000	    -45.00000000	   1693.84149558	   1155.94948182	     21.81542776	   -151.97108050	   2517.98954553	    155.34803156	     15.60410550	     14.68242613	     -0.74679669	     32.77602518	    -31.85981236	    -45.00000000	    -45.00000000	   3687.23387397	  -2607.37427085	    132.12062192	   -100.16918115	   1790.20507533	     42.97977506	     13.12064773	    -22.83096674
      5.28000000	    -31.52066374	    -27.01892484	     32.46670186	    -72.04169507	    848.46484642	    -53.56850999	     26.24395726	    -45.00000000	     39.66696444	    -45.00000000	    -45.00000000	   1693.96507322	   1155.86990362	     21.88641256	   -152.35998921	   2517.94775887	    155.17018599	     15.56706977	     14.72061332	     -0.74706096	     32.76395679	    -31.83006674	    -45.00000000	    -45.00000000	   3687.16790696	  -2607.21399395	    132.00163815	    -99.57626768	   1790.19368902	     42.91486018	     13.21583561	    -22.69395921
      5.29000000	    -31.33186848	    -27.35176448	     32.84986886	    -69.54435854	    847.88552080	    -53.73858079	     26.12443497	    -45.00000000	     39.71508483	    -45.00000000	    -45.00000000	   1694.15498487	   1155.81701917	     21.92077865	   -152.91622610	   2517.95838785	    155.02863333	     15.46801402	     14.81211544	     -0.71121730	     32.75270714	    -31.89776870	    -45.00000000	    -45.00000000	   3687.08435296	  -2607.15225713	    131.97363819	    -98.93204081	   1790.22873655	     42.85374200	     13.35034112	    -22.55512325
      5.30000000	    -31.14149263	    -27.70777797	     33.24352938	    -66.92530905	    847.26037060	    -53.89818001	     26.28030477	    -45.00000000	     39.78309522	    -45.00000000	    -45.00000000	   1694.28563573	   1155.71821366	     21.99818454	   -153.29537553	   2517.90439846	    154.95854164	     15.45498341	     14.83482307	     -0.68193888	     32.74603841	    -31.90366003	    -45.00000000	    -45.00000000	   3687.03645278	  -2606.98948834	    131.84498464	    -98.33234909	   1790.19011846	     42.81881164	     13.44457153	    -22.36846373
      5.31000000	    -30.93446624	    -28.07900101	     33.62927187	    -64.20124993	    846.59600691	    -54.04416713	     26.24167314	    -45.00000000	     39.83485620	    -45.00000000	    -45.00000000	   1694.49247289	   1155.68060800	     22.06127902	   -153.81163762	   2517.89178510	    154.93106735	     15.39226144	     14.89454395	     -0.60785217	     32.74020265	    -31.96180707	    -45.00000000	    -45.00000000	   3686.96736395	  -2606.91941331	    131.79856536	    -97.68026121	   1790.18187221	     42.78311953	     13.56814127	    -22.17593227
      5.32000000	    -30.73855003	    -28.45268955	     34.03612172	    -61.39344313	    845.90120715	    -54.17174276	     26.21266475	    -45.00000000	     39.86135553	    -45.00000000	    -45.00000000	   1694.67323594	   1155.59399332	     22.14089508	   -154.34549592	   2517.86257060	    154.95124775	     15.32822197	     14.95810782	     -0.57152036	     32.71970469	    -32.03255808	    -45.00000000	    -45.00000000	   3686.90841152	  -2606.82315473	    131.76049610	    -97.01283925	   1790.19536584	     42.78901004	     13.68889398	    -21.97725039
      5.33000000	    -30.47000544	    -28.79701429	     34.52790109	    -58.53595054	    845.18912068	    -54.27706119	     26.22924318	    -45.00000000	     39.92872733	    -45.00000000	    -45.00000000	   1694.84183155	   1155.49172860	     22.16102697	   -154.84353050	   2517.86509458	    155.02102218	     15.25920167	     15.00860658	     -0.53779547	     32.69949388	    -32.03159352	    -45.00000000	    -45.00000000	   3686.80498355	  -2606.70106269	    131.67840574	    -96.36464192	   1790.19638833	     42.86674653	     13.80796539	    -21.76613928
      5.34000000	    -30.20053134	    -29.18898900	     34.99524192	    -55.63693170	    844.45993579	    -54.35733515	     26.45403962	    -45.00000000	     40.00822918	    -45.00000000	    -45.00000000	   1694.96740805	   1155.38243831	     22.26522392	   -155.21022760	   2517.79524082	    155.13281713	     15.24280063	     15.02392631	     -0.53398420	     32.68301099	    -32.00290205	    -45.00000000	    -45.00000000	   3686.76353983	  -2606.57148754	    131.55914640	    -95.73099956	   1790.17416547	     43.00202780	     13.88209059	    -21.52806821
      5.35000000	    -29.91744110	    -29.48815120	     35.45023516	    -52.70416210	    843.71251059	    -54.41245962	     26.30777928	    -45.00000000	     40.03943407	    -45.00000000	    -45.00000000	   1695.19663606	   1155.30627080	     22.28245302	   -155.80063367	   2517.85189003	    155.25981458	     15.09873994	     15.09947050	     -0.45543406	     32.66279045	    -32.06688401	    -45.00000000	    -45.00000000	   3686.63440194	  -2606.53800592	    131.51849839	    -95.08357817	   1790.22336899	     43.19736103	     14.01935051	    -21.35517253
      5.36000000	    -29.65310375	    -29.78513776	     35.89155075	    -49.72107786	    842.93423135	    -54.44242778	     26.22478075	    -45.00000000	     40.04168779	    -45.00000000	    -45.00000000	   1695.38444916	   1155.19192623	     22.37508821	   -156.35936411	   2517.87093957	    155.43909724	     14.95329021	     15.18714014	     -0.45117184	     32.62338658	    -32.09872044	    -45.00000000	    -45.00000000	   3686.51230121	  -2606.45215003	    131.46484721	    -94.46377360	   1790.25907257	     43.48268742	     14.12757009	    -21.16758494
      5.37000000	    -29.30896520	    -30.14144724	     36.42720879	    -46.67140881	    842.10983686	    -54.44845021	     26.40105600	    -45.00000000	     40.12814004	    -45.00000000	    -45.00000000	   1695.53852451	   1155.08094763	     22.40978582	   -156.68097000	   2517.82404620	    155.64335436	     14.90769662	     15.17615924	     -0.40435101	     32.60678542	    -32.04967817	    -45.00000000	    -45.00000000	   3686.43470289	  -2606.36797074	    131.34297972	    -93.91361835	   1790.24462378	     43.78959526	     14.18526846	    -20.94381485
